<?xml version="1.0" encoding="UTF-8"?>
<svg id="Layer_1" xmlns="http://www.w3.org/2000/svg" xmlns:xlink="http://www.w3.org/1999/xlink" version="1.1" viewBox="0 0 202.5 95.9">
  <!-- Generator: Adobe Illustrator 30.3.0, SVG Export Plug-In . SVG Version: 2.1.3 Build 182)  -->
  <defs>
    <style>
      .st0 {
        fill: none;
      }

      .st1 {
        fill: #041d3c;
      }

      .st2 {
        clip-path: url(#clippath);
      }
    </style>
    <clipPath id="clippath">
      <path class="st0" d="M197.1,9.9c-15.5,0-30.4,3-44.5,9-14.2-6-29.2-9.1-44.7-9v3h.2c10.2,0,20.2,1.4,29.8,4-5-.7-10-1-15.1-1s-10,.3-14.9,1v3.1c.1,0,.2,0,.2,0,4.8-.6,9.8-1,14.7-1s9.6.3,14.3.9c-9.9,0-19.7,1.4-29.2,3.9v2.5c9.6-2.7,19.6-4,29.8-4s.3,0,.4,0c-10.2,1.3-20.1,4-29.6,8-.2,0-.3.1-.5.2v2c7.2-3.1,14.7-5.5,22.6-7.1-1.4.5-2.7,1-4.1,1.6-6.8,2.9-13,6.8-18.5,11.7v1.7c.2-.2.3-.3.5-.5,11.9-10.7,27.4-16.6,43.4-16.7.2,0,.5,0,.7,0s.5,0,.7,0c16,0,31.5,5.9,43.4,16.7.2.2.3.3.5.5v-1.7c-5.5-4.9-11.7-8.8-18.5-11.7-1.3-.6-2.7-1.1-4.1-1.6,7.8,1.6,15.4,4,22.6,7.1v-2c-.2,0-.3-.1-.5-.2-9.5-4-19.4-6.7-29.6-8,.1,0,.3,0,.4,0,10,0,19.9,1.3,29.4,3.9h0s.1,0,.3,0v-2.5c-9.5-2.6-19.3-3.9-29.2-3.9,4.7-.6,9.5-.9,14.3-.9s9.8.3,14.7,1c0,0,0,0,.2,0v-3.1c-4.9-.6-9.9-1-14.9-1s-9.9.3-14.7.9c9.6-2.7,19.5-4,29.6-4v-3Z"/>
    </clipPath>
  </defs>
  <path class="st1" d="M14.5,29.6v6.1c.3,0,2,.3,5.5.3s6.1-1.3,6.1-3.3-.8-3.1-4.3-3.1h-7.4ZM14.5,22.9h6.8c3.1,0,4-1.5,4-3s-.9-3.3-5.8-3.3-4.7.2-5,.3v6.1ZM6.9,42.3V14.5c0-2.8,1.6-3.9,3.2-4.1,1.3-.2,3.1-.5,8.3-.5,11.5,0,14.6,4,14.6,9.2s-2,6-3.7,7c2,.7,4.8,2.8,4.8,7.2s-2.9,9.5-15.5,9.5-11.3-.5-11.7-.5Z"/>
  <path class="st1" d="M47.1,16.9v8.2c.4,0,1.3.2,4.1.2,5.4,0,6.5-2,6.5-4.2s-.9-4.4-6.8-4.4-3.4.1-3.8.2ZM39.5,42.6V14.7c0-2.8,1.6-3.9,3.2-4.1,1.3-.2,3.1-.5,8.3-.5,11.1,0,14.6,5.3,14.6,11s-1.4,6.9-5,8.8c1.9,3,4.7,8.2,6.8,12.6h-8.9c-.7-1.4-3.8-8.3-5.4-10.7-.9.1-1.8,0-2.7,0s-2.9,0-3.3-.2v10.8h-7.6Z"/>
  <path class="st1" d="M72.8,42.3V14.8c0-2.9,1.5-4.4,4.6-4.4h14.9c2.8,0,4,1.3,4,3.5s-.7,3.2-1,3.7h-14.7v5.4h10.5c2.8,0,4,1.3,4,3.5s-.7,3.2-1,3.7h-13.5v12h-7.8Z"/>
  <g class="st2">
    <image width="373" height="128" transform="translate(107.7 9.8) scale(.2)" xlink:href="logo_brf-1.png"/>
  </g>
  <path class="st1" d="M194.5,77.8v-7.2c-.5-.1-2.4-.5-6.2-.5s-6.3.9-6.3,4.2,2,4.1,7.1,4.1,4.9-.4,5.4-.5ZM187.3,62.2c-2.9,0-4.7.9-5.4,1.6-.3-.3-.7-.7-.7-1.3s.3-1,.7-1.3c.5-.4,2.3-1.1,5.3-1.1,6.2,0,9.7,2.4,9.7,8v11.6c-1.5.3-4.5.6-8,.6-8.2,0-9.7-3.2-9.7-6.1s2-6.2,9-6.2,5.1.3,6.1.4v-.2c0-4.8-3.5-6-7.1-6Z"/>
  <path class="st1" d="M176.8,53.8c0,1-.9,1.9-1.9,1.9s-1.9-.9-1.9-1.9.8-1.9,1.9-1.9,1.9.8,1.9,1.9ZM173.6,79.8v-17.9c0-.8.4-1.3,1.4-1.3s1,.2,1.2.3v18.9h-2.6Z"/>
  <path class="st1" d="M165.2,62.3c-4.3,0-7.5,2.4-7.5,7.9s3.5,8,7.9,8,4.2-.8,5-1.3l1,1.9c-1.5.8-3.3,1.6-6.5,1.6-5.8,0-10.2-3.6-10.2-10s4.3-10.3,10.3-10.3,5.3.9,5.8,1.4c.3.3.7.6.7,1.2s-.3,1-.9,1.5c-.9-.8-2.8-1.8-5.6-1.8Z"/>
  <path class="st1" d="M151.8,79.8h-2.6v-10.7c0-4.3-2.1-6.8-6.5-6.8s-6.4,2.5-6.4,6.8v10.7h-2.6v-11.5c0-4.9,3.4-8.2,9-8.2s9,3.4,9,8.2v11.5Z"/>
  <path class="st1" d="M123,52.5c.7,0,1.2.5,1.9,1.1l3.5,3.2-1.2,1.2-4.1-2.9-4.1,2.9-1.2-1.2,3.5-3.2c.7-.6,1.2-1.1,1.9-1.1ZM115.6,69.9c1.4.1,2.7.1,4.1.1,7,0,8.8-1.9,8.8-4s-2.6-3.8-5.3-3.8c-4.8,0-7.5,3.7-7.6,7.8ZM115.7,71.9c.6,4,3.4,6.2,7.9,6.2s4.5-1,5.5-1.6l1.1,1.9c-.9.5-3.3,1.9-6.9,1.9-5.7,0-10.4-3.5-10.4-9.8s4.4-10.4,10.5-10.4,7.8,2.6,7.8,6-2.5,5.9-11,5.9-2.9,0-4.4-.1Z"/>
  <path class="st1" d="M107.8,63.9v-11.3c0-.8.4-1.3,1.4-1.3s1,.2,1.2.3v17.8c0,1.2,0,2.2-.2,2.9-.9,5.1-4.7,8.2-9.9,8.2s-10.3-4.5-10.3-10.1,4.2-10.1,10.3-10.1,6,1.4,7.5,3.8ZM92.7,70.2c0,4.4,2.9,7.9,7.5,7.9s7.5-3.3,7.5-7.8-3.1-8-7.5-8-7.5,3.5-7.5,8Z"/>
  <path class="st1" d="M87.3,53.8c0,1-.9,1.9-1.9,1.9s-1.9-.9-1.9-1.9.8-1.9,1.9-1.9,1.9.8,1.9,1.9ZM84.1,79.8v-17.9c0-.8.4-1.3,1.4-1.3s1,.2,1.2.3v18.9h-2.6Z"/>
  <path class="st1" d="M62.7,64.2c-.3-.6-.7-1.7-.7-2.3s.4-1.3,1.3-1.3.9.2,1,.2c2.3,6.2,5.9,12.7,7.8,16.7,3.3-6.2,6.9-14.7,7.1-15.4.4-1,.8-1.5,1.7-1.5s1.3.5,1.4.6c-1.1,3.7-6.2,13.8-8.9,18.6h-2.8c-2.4-4.4-6.6-12.3-7.9-15.6Z"/>
  <path class="st1" d="M46.2,69.9c1.4.1,2.7.1,4.1.1,7,0,8.8-1.9,8.8-4s-2.6-3.8-5.3-3.8c-4.8,0-7.5,3.7-7.6,7.8ZM46.3,71.9c.6,4,3.4,6.2,7.9,6.2s4.5-1,5.5-1.6l1.1,1.9c-.9.5-3.3,1.9-6.9,1.9-5.7,0-10.4-3.5-10.4-9.8s4.4-10.4,10.5-10.4,7.8,2.6,7.8,6-2.5,5.9-11,5.9-2.9,0-4.4-.1Z"/>
  <path class="st1" d="M43.2,62c0,.5-.3.9-.6,1.2-.9-.4-2.2-.9-4-.9-4.2,0-5.6,2.1-5.6,6v11.5h-2.6v-12.7c0-4.5,2.8-7.1,7.9-7.1s4.9.6,4.9,1.9Z"/>
  <path class="st1" d="M6.9,87.6v-16.4c0-1.2,0-2.2.2-2.9.9-5.1,4.7-8.2,9.9-8.2s10.3,4.5,10.3,10.1-4.2,10.1-10.3,10.1-6.1-1.5-7.5-3.7v10.9h-2.6ZM24.6,70.2c0-4.4-2.9-7.9-7.5-7.9s-7.5,3.4-7.5,7.9,3,8,7.5,8,7.5-3.5,7.5-8Z"/>
</svg>